<svg version="1.2" xmlns="http://www.w3.org/2000/svg" viewBox="0 0 1280 128" width="1280" height="128">
	<title>Novo Projeto</title>
	<style>
		.s0 { fill: #ffffff } 
	</style>
	<path id="EDUARDO SILVA" class="s0" aria-label="EDUARDO SILVA"  d="m130 97h-43.6v-64.8h43.8v11.7h-29.4v13.6h24.1v11.6h-24.1v16.3h29.2zm60.1 0h-16.6v-64.8h17.8q5.8 0 9.8 1 3.9 1 6.8 3.1 2.8 2 4.9 4.9 2.2 2.9 3.8 6.7 1.7 3.6 2.5 7.9 0.9 4.2 0.9 9.2 0 7.4-1.7 13.3-1.8 5.9-5.5 10-3.6 4.2-9.3 6.5-5.6 2.2-13.4 2.2zm-2.1-53.4v41.8h1.9q6.1 0 9.5-2.7 3.6-2.7 4.9-7.3 1.5-4.7 1.5-10.4 0-6.3-1.3-11.1-1.1-4.8-4.3-7.5-3.3-2.8-9.3-2.8zm96.3 54.8q-10.8 0-16.9-6.4-6.2-6.6-6.2-17.9v-41.9h14.7 0.9v1.1q-0.5 0.6-0.7 1.4-0.1 0.7-0.1 2.5v37q0 5.8 1.8 9.1 1.8 3.4 6.6 3.4 4.9 0 6.8-3.4 1.8-3.4 1.8-9.4v-41.7h14.6v41.6q0 8.4-3 13.9-3 5.4-8.3 8.1-5.2 2.6-12 2.6zm99.2-24.2l2.1 10.2h-26.5l1.8-10.2zm-0.5 22.8l-10.2-39.7-10.5 39.7h-14.5l20.6-64.8h8.8l20.6 64.8zm70.9 0h-14.9v-64.8h21.5q8.1 0 13.3 2.4 5.3 2.3 7.8 6.7 2.6 4.4 2.6 10.2 0 3.5-1.5 7.1-1.3 3.4-3.9 6.3-2.6 2.8-6.1 4.5l13.3 27.6h-15.2l-12.4-25.8h-4.5zm0-52.5v14.7h7.3q3.7 0 5.7-1.9 2.2-1.9 2.2-5.3 0-2-0.9-3.7-1-1.7-2.7-2.7-1.8-1.1-4.3-1.1zm89.7 52.5h-16.6v-64.8h17.8q5.8 0 9.8 1 3.9 1 6.7 3.1 2.9 2 5 4.9 2.2 2.9 3.8 6.7 1.6 3.6 2.5 7.9 0.9 4.2 0.9 9.2 0 7.4-1.8 13.3-1.7 5.9-5.4 10-3.6 4.2-9.3 6.5-5.6 2.2-13.4 2.2zm-2.1-53.4v41.8h1.9q6.1 0 9.5-2.7 3.6-2.7 4.9-7.3 1.5-4.6 1.5-10.4 0-6.3-1.3-11.1-1.1-4.8-4.4-7.5-3.2-2.8-9.2-2.8zm96.7 54.6q-8.3 0-13.8-3.9-5.5-4-8.3-11.5-2.7-7.6-2.7-18.4 0-10.7 2.7-18.1 2.8-7.5 8.3-11.4 5.5-4 13.8-4 8.2 0 13.7 4 5.6 3.9 8.4 11.4 2.8 7.4 2.8 18.1 0 10.8-2.8 18.4-2.8 7.6-8.4 11.6-5.5 3.8-13.7 3.8zm0-11.6q3.2 0 5.5-2.3 2.3-2.4 3.6-7.3 1.3-5 1.3-12.8 0-7.2-1.3-12-1.3-4.8-3.6-7.2-2.3-2.4-5.5-2.4-3.3 0-5.7 2.4-2.3 2.4-3.5 7.2-1.2 4.8-1.2 12 0 7.8 1.2 12.8 1.2 4.9 3.5 7.3 2.4 2.3 5.7 2.3zm175.4 11.6q-6.6 0-12.7-1.8-6.1-1.8-9.8-5.7l7.1-11.7 0.5-0.9 1 0.7q0.2 0.7 0.5 1.5 0.5 0.7 1.8 1.9 2.5 1.7 5.4 2.8 2.9 1.1 6.1 1.2 2.1 0 3.8-0.3 1.8-0.3 3-1 1.3-0.7 1.9-2 0.7-1.3 0.7-3.2 0-0.9-0.3-1.9-0.2-1-0.8-2-0.7-1-2-2-1.3-1.1-3.2-2.3-2-1.3-5-2.6-6.7-3.2-10.6-6.2-3.9-2.9-5.6-6.3-1.7-3.5-1.7-8.4 0-4.8 2.8-8.7 2.9-3.8 7.8-6.1 4.9-2.3 10.7-2.3 4.5 0 8.1 1 3.8 0.9 6.9 2.8 3.2 1.8 5.9 4.7l-8.8 9.6-0.6 0.7-1-0.8q-0.1-0.8-0.3-1.5-0.2-0.9-1.3-2.1-1.7-1.5-3.6-1.9-1.9-0.5-4.4-0.5-1.7 0-3.2 0.4-1.4 0.3-2.5 1-1 0.7-1.6 1.5-0.6 0.8-0.6 1.8 0 0.9 0.3 1.7 0.2 0.8 0.8 1.6 0.6 0.8 1.9 1.8 1.3 0.9 3.4 2.1 2.2 1.2 5.4 2.7 5 2.5 8.4 4.8 3.5 2.3 5.4 4.8 2.1 2.4 2.9 5.3 1 2.9 1 6.7 0 4.9-2.5 9.2-2.5 4.4-7.8 7.2-5.3 2.7-13.6 2.7zm109.5-1.2h-39.4v-11.8h12.5v-41.3h-11.9v-11.7h38.2v11.7h-12.5v41.3h13.1zm47.7 0v-64.8h14.7 0.9v1.2q-0.5 0.6-0.7 1.3-0.1 0.7-0.1 2.5v48h28.7v11.8zm115.1 0h-11l-20-64.8h14.4l11.5 42.9 10.8-42.9h14.1zm93-22.8l2.1 10.2h-26.5l1.8-10.2zm-0.4 22.8l-10.2-39.6-10.5 39.6h-14.6l20.6-64.8h8.8l20.6 64.8z"/>
</svg>